<svg xmlns="http://www.w3.org/2000/svg" xmlns:xlink="http://www.w3.org/1999/xlink" width="310" zoomAndPan="magnify" viewBox="0 0 232.5 225" height="300" preserveAspectRatio="xMidYMid meet" version="1.0"><defs><clipPath id="0ac2da8c3b"><path d="M 9.246094 5.746094 L 222.539062 5.746094 L 222.539062 219.039062 L 9.246094 219.039062 Z M 9.246094 5.746094 " clip-rule="nonzero"/></clipPath><clipPath id="94ef4b1ac2"><path d="M 116 5.746094 C 57.042969 5.746094 9.246094 53.542969 9.246094 112.5 C 9.246094 171.457031 57.042969 219.25 116 219.25 C 174.957031 219.25 222.75 171.457031 222.75 112.5 C 222.75 53.542969 174.957031 5.746094 116 5.746094 Z M 116 5.746094 " clip-rule="nonzero"/></clipPath></defs><g clip-path="url(#0ac2da8c3b)"><g clip-path="url(#94ef4b1ac2)"><path stroke-linecap="butt" transform="matrix(0.748391, 0, 0, 0.748391, 9.247821, 5.747295)" fill="none" stroke-linejoin="miter" d="M 142.642344 -0.00160564 C 63.863913 -0.00160564 -0.00230831 63.864616 -0.00230831 142.643046 C -0.00230831 221.421477 63.863913 285.282479 142.642344 285.282479 C 221.420774 285.282479 285.281776 221.421477 285.281776 142.643046 C 285.281776 63.864616 221.420774 -0.00160564 142.642344 -0.00160564 Z M 142.642344 -0.00160564 " stroke="#59318D" stroke-width="52" stroke-opacity="1" stroke-miterlimit="4"/></g></g></svg>